<svg xmlns="http://www.w3.org/2000/svg" width="24" height="24" viewBox="0 0 24 24" fill="currentColor">
    <path d="M17.5 4C15.57 4 14 5.57 14 7.5c0 1.12.52 2.12 1.34 2.76-.37 1.57-1.81 2.74-3.34 2.74-1.03 0-2-.38-2.75-1.02V6.5C10.45 6.14 11 5.38 11 4.5 11 3.12 9.88 2 8.5 2S6 3.12 6 4.5c0 .88.45 1.64 1.25 2V17.5c-.8.36-1.25 1.12-1.25 2 0 1.38 1.12 2.5 2.5 2.5s2.5-1.12 2.5-2.5c0-.88-.45-1.64-1.25-2v-4.37c.75.58 1.65.87 2.75.87 2.53 0 4.76-1.97 5.34-4.56C19.45 9.12 20 8.38 20 7.5 20 5.57 18.43 4 17.5 4zM8.5 3.5c.55 0 1 .45 1 1s-.45 1-1 1-1-.45-1-1 .45-1 1-1zm0 17c-.55 0-1-.45-1-1s.45-1 1-1 1 .45 1 1-.45 1-1 1zM17.5 9c-.55 0-1-.45-1-1s.45-1 1-1 1 .45 1 1-.45 1-1 1z"/>
</svg>
